<svg width="156" height="30" fill="none" xmlns="http://www.w3.org/2000/svg"><path d="M70.31 15.11c0 5.891-3.593 8.676-8.09 8.676h-2.75v-3.535h2.535c2.713 0 4.521-1.464 4.521-5.141 0-3.643-1.71-5.464-4.601-5.464-2.785 0-4.775 1.714-4.775 5.392v14.783H53.4V6.575h3.749v2h.535c1.25-1.678 3.097-2.428 5.025-2.428 4.141 0 7.6 3 7.6 8.963zm-24.634-1.536l-2.5-.25c-1.963-.179-2.998-.714-2.998-1.857 0-1.357 1.32-2.142 3.213-2.142 1.963 0 3.213.928 3.32 2.25h3.605c-.142-3.357-2.748-5.428-6.89-5.428-4.176 0-6.997 2.213-6.997 5.463 0 2.714 1.714 4.463 5.605 4.856l2.535.25c1.535.143 2.57.464 2.57 1.928 0 1.322-.964 2.286-3.498 2.286-2.334 0-3.484-1.06-3.888-2.48h-3.9c.388 3.246 3.114 5.765 7.788 5.765 4.39 0 7.247-2.321 7.247-5.75 0-3.034-2-4.57-5.212-4.891zm39.152 4.876c-.588 1.351-1.993 2.373-3.987 2.373-2.748 0-4.783-1.786-4.783-5.642 0-3.678 1.892-5.714 4.819-5.714 2.606 0 4.106 1.572 4.248 3.928h-6.747v2.714h10.424v-1.785c0-4.964-3.284-8.177-7.96-8.177-4.356 0-8.533 2.963-8.533 9.034 0 6.07 4.177 9.034 8.532 9.034 3.984 0 6.825-2.455 7.707-5.765h-3.72zM25.738 6.147c-4.106 0-7.176 2.142-7.533 5.427h4.034c.286-1.214 1.392-2.106 3.499-2.106 2.713 0 3.605 1.428 3.605 3.178v5.891c-1.535 1.75-3.32 2.571-5.105 2.571-1.856 0-3.141-.892-3.141-2.499 0-1.536 1-2.5 2.927-2.5h2.999v-2.714h-3.106c-4.284 0-6.676 2.143-6.676 5.428 0 3.07 2.32 5.392 6.14 5.392 2.142 0 4.035-.857 5.427-1.893h.535v1.464h3.749V12.288c0-4.249-2.892-6.141-7.354-6.141zM.305 23.787h3.748V.218H.305v23.567zM16.048 6.574h-4.57l-5.461 7.178v2.25l5.604 7.783h4.641L9.694 14.86l6.354-8.284zm135.506 0l-3.07 6.82c-.75 1.643-1.463 3.25-1.678 4.321h-.536c-.214-1.071-.963-2.642-1.713-4.285l-3.07-6.856h-4.141l7.211 15.462-3.57 7.784h3.999l10.709-23.246h-4.141zm-15.037 0h-4.57l-5.462 7.178v2.25l5.605 7.783h4.641l-6.569-8.927 6.355-8.284zm-23.469 6.999l-2.499-.25c-1.964-.179-2.999-.714-2.999-1.857 0-1.357 1.321-2.142 3.213-2.142 1.963 0 3.213.928 3.32 2.25h3.605c-.142-3.357-2.748-5.428-6.889-5.428-4.177 0-6.997 2.213-6.997 5.463 0 2.714 1.713 4.463 5.604 4.856l2.535.25c1.535.143 2.57.464 2.57 1.928 0 1.322-.964 2.286-3.498 2.286-2.334 0-3.484-1.06-3.888-2.48h-3.901c.389 3.246 3.115 5.765 7.789 5.765 4.391 0 7.247-2.321 7.247-5.75 0-3.034-1.999-4.57-5.212-4.891zm7.725 10.212h3.749V.22h-3.749v23.567zM96.055 8.575h-.535v-2H91.77v17.211h3.749v-8.998c0-3.071 1.418-4.856 4.212-4.856h2.373V6.147h-1.373c-2.593 0-3.694.978-4.677 2.428z" fill="#00A88E"/></svg>