<svg width="28" height="26" viewBox="0 0 28 26" fill="none" xmlns="http://www.w3.org/2000/svg">
<path fill-rule="evenodd" clip-rule="evenodd" d="M20.5241 3.69635L21.1197 0.207926C21.167 -0.0693082 21.5652 -0.0693091 21.6125 0.207925L22.2081 3.69635C22.3152 4.32384 22.8068 4.81537 23.4343 4.92251L26.9227 5.51809C27.1999 5.56542 27.1999 5.96363 26.9227 6.01096L23.4343 6.60654C22.8068 6.71368 22.3152 7.20521 22.2081 7.8327L21.6125 11.3211C21.5652 11.5984 21.167 11.5984 21.1197 11.3211L20.5241 7.8327C20.4169 7.20521 19.9254 6.71368 19.2979 6.60654L15.8095 6.01096C15.5323 5.96363 15.5323 5.56542 15.8095 5.51809L19.2979 4.92251C19.9254 4.81537 20.4169 4.32384 20.5241 3.69635ZM17.3661 7.76455C17.8543 8.25271 17.8543 9.04417 17.3661 9.53232L14.6919 12.2065L12.9242 10.4387L15.5984 7.76455C16.0865 7.2764 16.878 7.2764 17.3661 7.76455ZM3.92417 19.4387L12.0403 11.3226L13.808 13.0904L5.69193 21.2065L3.92417 19.4387ZM3.04028 20.3226L4.80805 22.0904L2.13388 24.7646C1.64573 25.2527 0.854272 25.2527 0.366117 24.7646C-0.122039 24.2764 -0.122039 23.485 0.366117 22.9968L3.04028 20.3226ZM18.2517 12.1847L17.9751 13.8043C17.9254 14.0956 17.6972 14.3238 17.4059 14.3736L15.7862 14.6501C15.6575 14.6721 15.6575 14.857 15.7862 14.8789L17.4059 15.1555C17.6972 15.2052 17.9254 15.4334 17.9751 15.7247L18.2517 17.3444C18.2736 17.4731 18.4585 17.4731 18.4805 17.3444L18.757 15.7247C18.8068 15.4334 19.035 15.2052 19.3263 15.1555L20.9459 14.8789C21.0746 14.857 21.0746 14.6721 20.9459 14.6501L19.3263 14.3736C19.035 14.3238 18.8068 14.0956 18.757 13.8043L18.4805 12.1847C18.4585 12.056 18.2736 12.056 18.2517 12.1847ZM11.2517 1.18467L10.9751 2.8043C10.9254 3.09563 10.6972 3.32384 10.4059 3.37358L8.78623 3.65011C8.65752 3.67208 8.65752 3.85696 8.78623 3.87894L10.4059 4.15546C10.6972 4.2052 10.9254 4.43341 10.9751 4.72475L11.2517 6.34437C11.2736 6.47309 11.4585 6.47309 11.4805 6.34437L11.757 4.72475C11.8068 4.43341 12.035 4.2052 12.3263 4.15546L13.9459 3.87894C14.0746 3.85696 14.0746 3.67208 13.9459 3.65011L12.3263 3.37358C12.035 3.32384 11.8068 3.09563 11.757 2.8043L11.4805 1.18467C11.4585 1.05596 11.2736 1.05596 11.2517 1.18467Z" fill="url(#paint0_linear_1273_4895)"/>
<defs>
<linearGradient id="paint0_linear_1273_4895" x1="16.5798" y1="8.69908" x2="-4.16715" y2="30.7692" gradientUnits="userSpaceOnUse">
<stop stop-color="#FF603D"/>
<stop offset="0.411458" stop-color="#CA74FF"/>
<stop offset="0.901042" stop-color="#AB8DFF"/>
</linearGradient>
</defs>
</svg>